<svg width="88" height="88" viewBox="0 0 88 88" fill="none" xmlns="http://www.w3.org/2000/svg">
<rect x="2" y="2" width="84" height="84" rx="42" stroke="black" stroke-width="4"/>
<g clip-path="url(#clip0_1_142)">
<path d="M29 27.2469C29 26.5625 29.5531 26 30.2469 26C30.575 26 30.8937 26.1313 31.1281 26.3656L32.525 27.7625C32.1875 28.6063 32 29.5344 32 30.5C32 32.3656 32.675 34.0625 33.8 35.375C33.3031 36.2375 33.425 37.3531 34.1562 38.0938C35.0375 38.975 36.4625 38.975 37.3344 38.0938L47.0938 28.3438C47.975 27.4625 47.975 26.0375 47.0938 25.1656C46.3625 24.425 45.2375 24.3125 44.375 24.8094C43.0625 23.675 41.3656 23 39.5 23C38.5344 23 37.6063 23.1875 36.7625 23.5156L35.3656 22.1188C34.0062 20.7594 32.1594 20 30.2469 20C26.2438 20 23 23.2438 23 27.2469V44C21.3406 44 20 45.3406 20 47C20 48.6594 21.3406 50 23 50H65C66.6594 50 68 48.6594 68 47C68 45.3406 66.6594 44 65 44H29V27.2469ZM23 53V54.5C23 57.1625 24.1625 59.5625 26 61.2125V65C26 66.6594 27.3406 68 29 68C30.6594 68 32 66.6594 32 65V63.5H56V65C56 66.6594 57.3406 68 59 68C60.6594 68 62 66.6594 62 65V61.2125C63.8375 59.5625 65 57.1719 65 54.5V53H23Z" fill="black"/>
</g>
<defs>
<clipPath id="clip0_1_142">
<rect width="48" height="48" fill="white" transform="translate(20 20)"/>
</clipPath>
</defs>
</svg>
