<svg width="44" height="44" viewBox="0 0 44 44" fill="none" xmlns="http://www.w3.org/2000/svg">
<path d="M14.5 13.6234C14.5 13.2813 14.7766 13 15.1234 13C15.2875 13 15.4469 13.0656 15.5641 13.1828L16.2625 13.8813C16.0938 14.3031 16 14.7672 16 15.25C16 16.1828 16.3375 17.0312 16.9 17.6875C16.6516 18.1187 16.7125 18.6766 17.0781 19.0469C17.5188 19.4875 18.2312 19.4875 18.6672 19.0469L23.5469 14.1719C23.9875 13.7313 23.9875 13.0187 23.5469 12.5828C23.1812 12.2125 22.6187 12.1562 22.1875 12.4047C21.5312 11.8375 20.6828 11.5 19.75 11.5C19.2672 11.5 18.8031 11.5938 18.3813 11.7578L17.6828 11.0594C17.0031 10.3797 16.0797 10 15.1234 10C13.1219 10 11.5 11.6219 11.5 13.6234V22C10.6703 22 10 22.6703 10 23.5C10 24.3297 10.6703 25 11.5 25H32.5C33.3297 25 34 24.3297 34 23.5C34 22.6703 33.3297 22 32.5 22H14.5V13.6234ZM11.5 26.5V27.25C11.5 28.5812 12.0812 29.7812 13 30.6063V32.5C13 33.3297 13.6703 34 14.5 34C15.3297 34 16 33.3297 16 32.5V31.75H28V32.5C28 33.3297 28.6703 34 29.5 34C30.3297 34 31 33.3297 31 32.5V30.6063C31.9188 29.7812 32.5 28.5859 32.5 27.25V26.5H11.5Z" fill="black" fill-opacity="0.2"/>
<rect x="1" y="1" width="42" height="42" rx="21" stroke="black" stroke-opacity="0.2" stroke-width="2"/>
</svg>
