<svg width="88" height="88" viewBox="0 0 88 88" fill="none" xmlns="http://www.w3.org/2000/svg">
<rect x="2" y="2" width="84" height="84" rx="42" stroke="black" stroke-width="4"/>
<path d="M66.6974 43.8255C66.5535 43.7973 63.9707 43.2976 60.505 43.0421C60.5218 42.7236 60.5307 42.4031 60.5307 42.0804C60.5307 32.1109 52.4198 24 42.4503 24C32.4806 24 24.3696 32.1109 24.3696 42.0804C24.3696 44.1824 24.7315 46.201 25.3938 48.0792C23.0821 48.2737 21.4019 48.5988 21.3026 48.6183L20 48.8737L20.5673 50.0737C20.7422 50.4438 24.9115 59.1659 30.1336 61.8044C32.0182 62.7565 33.7808 63.2392 35.3726 63.2395C35.373 63.2395 35.3731 63.2395 35.3734 63.2395C37.7441 63.2395 39.6855 62.1685 40.9071 60.207C42.5097 62.1219 44.7653 63.1536 47.4345 63.1536C49.5609 63.1536 51.9249 62.5041 54.4608 61.223C61.5205 57.6561 67.1945 45.7848 67.4327 45.281L68 44.081L66.6974 43.8255ZM57.3464 36.2013C56.6649 35.6433 55.8801 35.1211 54.9965 34.6426C53.9029 34.0503 52.6931 33.5458 51.3982 33.1327C50.9851 31.8376 50.4806 30.6278 49.8881 29.534C49.4096 28.6505 48.8875 27.8656 48.3294 27.1842C52.4384 28.8118 55.719 32.0924 57.3464 36.2013ZM58.3312 41.0473H52.6996C52.6403 39.1477 52.4167 37.3029 52.0429 35.566C55.3987 36.8773 57.7614 38.8406 58.3312 41.0473ZM43.4834 26.1993C45.6902 26.7692 47.6535 29.1321 48.9649 32.4879C47.2279 32.1141 45.3833 31.8906 43.4834 31.8312V26.1993ZM43.4834 33.8982C45.705 33.9747 47.8197 34.2955 49.7231 34.8075C50.2352 36.711 50.5559 38.8257 50.6326 41.0471H43.4834V33.8982ZM43.4834 43.1136H50.6326C50.6294 43.2049 50.6259 43.2962 50.622 43.3871C48.8989 43.7068 47.4097 44.1807 46.1681 44.808C45.1767 45.3087 44.2816 45.8433 43.4834 46.4098V43.1136ZM41.417 26.1993V31.8312C39.5173 31.8906 37.6725 32.1141 35.9355 32.4879C37.2469 29.1321 39.2103 26.7692 41.417 26.1993ZM41.417 33.8982V41.0473H34.2678C34.3443 38.8258 34.6651 36.711 35.1773 34.8075C37.0806 34.2955 39.1955 33.9749 41.417 33.8982ZM36.5709 27.1844C36.0128 27.8659 35.4907 28.6507 35.0122 29.5342C34.4198 30.6279 33.9153 31.8378 33.5022 33.1328C32.2071 33.5461 30.9974 34.0504 29.9036 34.6428C29.0201 35.1213 28.2352 35.6434 27.5538 36.2014C29.1814 32.0923 32.4619 28.8118 36.5709 27.1844ZM32.8575 35.5659C32.4837 37.3029 32.2601 39.1475 32.2008 41.0473H26.569C27.1388 38.8406 29.5017 36.8773 32.8575 35.5659ZM32.2008 43.1136C32.2562 44.8855 32.454 46.6098 32.7836 48.2434C32.4297 48.1843 32.0633 48.1334 31.6844 48.0914C28.9561 46.8051 27.0698 45.0533 26.569 43.1136H32.2008ZM38.6404 59.7934C37.9551 60.5496 36.9211 61.1729 35.3734 61.1729H35.3729C34.1076 61.1728 32.6584 60.7647 31.0654 59.96C27.5494 58.1834 24.3774 52.8547 23.0693 50.4234C24.3722 50.237 26.4577 50.0014 28.6713 50.0014C31.6182 50.0014 33.9121 50.4054 35.4895 51.2023C36.9108 51.9203 37.9985 52.724 38.7446 53.5899C38.5962 55.0963 38.8835 56.6384 39.603 58.1502L29.1571 53.2592L38.6404 59.7934ZM37.2835 49.8249C37.0073 49.6652 36.7207 49.5092 36.4212 49.3579C35.9968 49.1435 35.5323 48.9544 35.0326 48.7881C34.6048 47.0345 34.337 45.1176 34.2678 43.1135H41.417V48.1677C40.803 48.8041 40.2907 49.4721 39.8809 50.1701C38.9906 50.093 38.1223 49.9769 37.2835 49.8249ZM53.529 59.3785C51.2848 60.5123 49.2342 61.0871 47.4345 61.0871C45.0335 61.0871 43.4787 60.0616 42.4823 58.8669L56.8287 49.6774L41.563 57.4599C41.5599 57.4538 41.5565 57.4475 41.5534 57.4413C39.5106 53.3974 41.5323 49.465 47.0999 46.6524C49.3224 45.5296 52.5339 44.9602 56.6453 44.9602C60.0317 44.9602 63.2107 45.3604 64.9427 45.6249C63.3177 48.7165 58.7109 56.7605 53.529 59.3785Z" fill="black"/>
</svg>
