<svg width="44" height="44" viewBox="0 0 44 44" fill="none" xmlns="http://www.w3.org/2000/svg">
<path d="M29.5 13C29.8978 13 30.2794 13.158 30.5607 13.4393C30.842 13.7206 31 14.1022 31 14.5C31 14.8978 30.842 15.2794 30.5607 15.5607C30.2794 15.842 29.8978 16 29.5 16C29.1022 16 28.7206 15.842 28.4393 15.5607C28.158 15.2794 28 14.8978 28 14.5C28 14.1022 28.158 13.7206 28.4393 13.4393C28.7206 13.158 29.1022 13 29.5 13ZM29.5 19C30.6935 19 31.8381 18.5259 32.682 17.682C33.5259 16.8381 34 15.6935 34 14.5C34 13.3065 33.5259 12.1619 32.682 11.318C31.8381 10.4741 30.6935 10 29.5 10C28.3065 10 27.1619 10.4741 26.318 11.318C25.4741 12.1619 25 13.3065 25 14.5C25 15.6935 25.4741 16.8381 26.318 17.682C27.1619 18.5259 28.3065 19 29.5 19ZM14.5 15.25C14.5 14.0078 15.5078 13 16.75 13C17.9922 13 19 14.0078 19 15.25V22.9609C19 23.7719 19.3328 24.4563 19.7172 24.9531C20.2094 25.5906 20.5 26.3828 20.5 27.25C20.5 29.3219 18.8219 31 16.75 31C14.6781 31 13 29.3219 13 27.25C13 26.3828 13.2906 25.5906 13.7828 24.9578C14.1672 24.4563 14.5 23.7719 14.5 22.9609V15.25ZM16.75 10C13.8484 10 11.5 12.3531 11.5 15.25V22.9609C11.5 22.9656 11.4953 22.975 11.4906 22.9891C11.4812 23.0172 11.4531 23.0641 11.4109 23.1203C10.525 24.2594 10 25.6938 10 27.25C10 30.9766 13.0234 34 16.75 34C20.4766 34 23.5 30.9766 23.5 27.25C23.5 25.6938 22.9703 24.2594 22.0891 23.1203C22.0469 23.0641 22.0188 23.0172 22.0094 22.9891C22.0047 22.975 22 22.9656 22 22.9609V15.25C22 12.3531 19.6516 10 16.75 10ZM16.75 29.5C17.9922 29.5 19 28.4922 19 27.25C19 26.2703 18.3719 25.4359 17.5 25.1266V15.25C17.5 14.8375 17.1625 14.5 16.75 14.5C16.3375 14.5 16 14.8375 16 15.25V25.1266C15.1281 25.4359 14.5 26.2703 14.5 27.25C14.5 28.4922 15.5078 29.5 16.75 29.5Z" fill="black" fill-opacity="0.2"/>
<rect x="1" y="1" width="42" height="42" rx="21" stroke="black" stroke-opacity="0.2" stroke-width="2"/>
</svg>
