<svg width="88" height="88" viewBox="0 0 88 88" fill="none" xmlns="http://www.w3.org/2000/svg">
<rect x="2" y="2" width="84" height="84" rx="42" stroke="black" stroke-width="4"/>
<g clip-path="url(#clip0_1_136)">
<path d="M59 26C59.7957 26 60.5587 26.3161 61.1213 26.8787C61.6839 27.4413 62 28.2044 62 29C62 29.7956 61.6839 30.5587 61.1213 31.1213C60.5587 31.6839 59.7957 32 59 32C58.2043 32 57.4413 31.6839 56.8787 31.1213C56.3161 30.5587 56 29.7956 56 29C56 28.2044 56.3161 27.4413 56.8787 26.8787C57.4413 26.3161 58.2043 26 59 26ZM59 38C61.3869 38 63.6761 37.0518 65.364 35.364C67.0518 33.6761 68 31.3869 68 29C68 26.6131 67.0518 24.3239 65.364 22.636C63.6761 20.9482 61.3869 20 59 20C56.6131 20 54.3239 20.9482 52.636 22.636C50.9482 24.3239 50 26.6131 50 29C50 31.3869 50.9482 33.6761 52.636 35.364C54.3239 37.0518 56.6131 38 59 38ZM29 30.5C29 28.0156 31.0156 26 33.5 26C35.9844 26 38 28.0156 38 30.5V45.9219C38 47.5438 38.6656 48.9125 39.4344 49.9062C40.4188 51.1812 41 52.7656 41 54.5C41 58.6437 37.6437 62 33.5 62C29.3562 62 26 58.6437 26 54.5C26 52.7656 26.5812 51.1813 27.5656 49.9156C28.3344 48.9125 29 47.5438 29 45.9219V30.5ZM33.5 20C27.6969 20 23 24.7063 23 30.5V45.9219C23 45.9312 22.9906 45.95 22.9812 45.9781C22.9625 46.0344 22.9062 46.1281 22.8219 46.2406C21.05 48.5187 20 51.3875 20 54.5C20 61.9531 26.0469 68 33.5 68C40.9531 68 47 61.9531 47 54.5C47 51.3875 45.9406 48.5187 44.1781 46.2406C44.0938 46.1281 44.0375 46.0344 44.0188 45.9781C44.0094 45.95 44 45.9312 44 45.9219V30.5C44 24.7063 39.3031 20 33.5 20ZM33.5 59C35.9844 59 38 56.9844 38 54.5C38 52.5406 36.7437 50.8719 35 50.2531V30.5C35 29.675 34.325 29 33.5 29C32.675 29 32 29.675 32 30.5V50.2531C30.2563 50.8719 29 52.5406 29 54.5C29 56.9844 31.0156 59 33.5 59Z" fill="black"/>
</g>
<defs>
<clipPath id="clip0_1_136">
<rect width="48" height="48" fill="white" transform="translate(20 20)"/>
</clipPath>
</defs>
</svg>
