<svg width="18" height="21" viewBox="0 0 18 21" fill="none" xmlns="http://www.w3.org/2000/svg">
<g clip-path="url(#clip0_1_159)">
<path d="M9.0041 5.66506C6.44874 5.66506 4.38758 7.72622 4.38758 10.2816C4.38758 12.8369 6.44874 14.8981 9.0041 14.8981C11.5595 14.8981 13.6206 12.8369 13.6206 10.2816C13.6206 7.72622 11.5595 5.66506 9.0041 5.66506ZM9.0041 13.2829C7.35276 13.2829 6.00276 11.9369 6.00276 10.2816C6.00276 8.62622 7.34874 7.28024 9.0041 7.28024C10.6595 7.28024 12.0054 8.62622 12.0054 10.2816C12.0054 11.9369 10.6554 13.2829 9.0041 13.2829ZM14.8862 5.47622C14.8862 6.07488 14.4041 6.55301 13.8095 6.55301C13.2108 6.55301 12.7327 6.07086 12.7327 5.47622C12.7327 4.88158 13.2148 4.39944 13.8095 4.39944C14.4041 4.39944 14.8862 4.88158 14.8862 5.47622ZM17.9438 6.56908C17.8755 5.12667 17.5461 3.84899 16.4894 2.79631C15.4367 1.74363 14.159 1.41417 12.7166 1.34185C11.23 1.25747 6.77419 1.25747 5.28758 1.34185C3.84919 1.41015 2.57151 1.73961 1.51482 2.79229C0.45812 3.84497 0.132673 5.12265 0.0603516 6.56506C-0.0240234 8.05167 -0.0240234 12.5075 0.0603516 13.9941C0.128655 15.4365 0.45812 16.7142 1.51482 17.7668C2.57151 18.8195 3.84517 19.149 5.28758 19.2213C6.77419 19.3057 11.23 19.3057 12.7166 19.2213C14.159 19.153 15.4367 18.8235 16.4894 17.7668C17.542 16.7142 17.8715 15.4365 17.9438 13.9941C18.0282 12.5075 18.0282 8.05569 17.9438 6.56908ZM16.0233 15.5892C15.7099 16.3767 15.1032 16.9834 14.3117 17.3008C13.1264 17.7709 10.3139 17.6624 9.0041 17.6624C7.69428 17.6624 4.87776 17.7668 3.69651 17.3008C2.90901 16.9874 2.30232 16.3807 1.98491 15.5892C1.51482 14.4039 1.6233 11.5914 1.6233 10.2816C1.6233 8.97176 1.51883 6.15524 1.98491 4.97399C2.2983 4.18649 2.90499 3.57979 3.69651 3.26238C4.88178 2.79229 7.69428 2.90077 9.0041 2.90077C10.3139 2.90077 13.1304 2.79631 14.3117 3.26238C15.0992 3.57577 15.7059 4.18247 16.0233 4.97399C16.4934 6.15926 16.3849 8.97176 16.3849 10.2816C16.3849 11.5914 16.4934 14.4079 16.0233 15.5892Z" fill="black"/>
</g>
<defs>
<clipPath id="clip0_1_159">
<rect width="18" height="20.5714" fill="white"/>
</clipPath>
</defs>
</svg>
