<svg width="205" height="52" viewBox="0 0 205 52" fill="none" xmlns="http://www.w3.org/2000/svg">
<path d="M4.29688 21V19.7695L5.88867 19.4961V8.23633H2.66602L2.38281 10.209H0.9375V6.78125H12.7539V10.209H11.3281L11.0352 8.23633H7.8125V19.4961L9.4043 19.7695V21H4.29688ZM14.5215 21V19.7695L16.1133 19.4961V8.29492L14.5215 8.02148V6.78125H19.6289V8.02148L18.0371 8.29492V13.207H24.834V8.29492L23.2422 8.02148V6.78125H24.834H26.7578H28.3496V8.02148L26.7578 8.29492V19.4961L28.3496 19.7695V21H23.2422V19.7695L24.834 19.4961V14.7207H18.0371V19.4961L19.6289 19.7695V21H14.5215ZM29.9316 21V19.7695L31.5234 19.4961V8.29492L29.9316 8.02148V6.78125H40.459V10.1992H38.916L38.7012 8.26562H33.4473V12.8945H38.6914V14.4082H33.4473V19.5547H39.0137L39.2285 17.5918H40.7617V21H29.9316ZM51.4648 21V19.7695L53.0566 19.4961V15.8242L48.6816 8.20703L47.5098 8.02148V6.78125H52.4121V8.02148L50.791 8.20703L53.8086 13.793L54.0137 14.1738L54.0234 14.1543L54.2188 13.793L57.3828 8.20703L55.7031 8.02148V6.78125H60.5078V8.02148L59.2676 8.20703L54.9707 15.6777V19.4961L56.5625 19.7695V21H51.4648ZM66.9629 21.2051C66.0449 21.2051 65.2214 21.0293 64.4922 20.6777C63.763 20.3262 63.1413 19.8314 62.627 19.1934C62.1191 18.5488 61.7285 17.7871 61.4551 16.9082C61.1882 16.0293 61.0547 15.0592 61.0547 13.998V13.793C61.0547 12.7383 61.1882 11.7715 61.4551 10.8926C61.7285 10.0072 62.1191 9.24219 62.627 8.59766C63.1413 7.95312 63.763 7.45508 64.4922 7.10352C65.2214 6.75195 66.0449 6.57617 66.9629 6.57617C67.9329 6.57617 68.7858 6.75195 69.5215 7.10352C70.2572 7.45508 70.8724 7.95312 71.3672 8.59766C71.8685 9.24219 72.2461 10.0072 72.5 10.8926C72.7539 11.7715 72.8809 12.7383 72.8809 13.793V13.998C72.8809 15.0592 72.7539 16.0293 72.5 16.9082C72.2461 17.7871 71.8685 18.5488 71.3672 19.1934C70.8724 19.8314 70.2572 20.3262 69.5215 20.6777C68.7858 21.0293 67.9329 21.2051 66.9629 21.2051ZM66.9629 19.6035C67.9069 19.6035 68.6686 19.3691 69.248 18.9004C69.834 18.4316 70.2637 17.7773 70.5371 16.9375C70.8105 16.0911 70.9473 15.1113 70.9473 13.998V13.7734C70.9473 12.6667 70.8073 11.6966 70.5273 10.8633C70.2539 10.0234 69.8242 9.36914 69.2383 8.90039C68.6523 8.42513 67.8939 8.1875 66.9629 8.1875C66.11 8.1875 65.3874 8.42513 64.7949 8.90039C64.2025 9.37565 63.7533 10.0332 63.4473 10.873C63.1413 11.7064 62.9883 12.6732 62.9883 13.7734V13.998C62.9883 15.1048 63.1413 16.0814 63.4473 16.9277C63.7533 17.7676 64.2025 18.4251 64.7949 18.9004C65.3874 19.3691 66.11 19.6035 66.9629 19.6035ZM74.3652 21V19.7695L75.957 19.4961V8.29492L74.3652 8.02148V6.79102H80.7031C81.7383 6.79102 82.6107 6.94727 83.3203 7.25977C84.0365 7.56576 84.5801 8.01172 84.9512 8.59766C85.3223 9.18359 85.5078 9.89974 85.5078 10.7461C85.5078 11.5794 85.3255 12.2793 84.9609 12.8457C84.6029 13.4121 84.0918 13.8418 83.4277 14.1348C82.7637 14.4212 81.9759 14.5742 81.0645 14.5938L77.8809 14.6523V19.4961L79.4727 19.7695V21H74.3652ZM83.75 21L80.5859 13.9004L82.5098 13.8809L85.1367 19.5645L86.123 19.7402V21H83.75ZM77.8809 13.1387H80.5078C81.582 13.1387 82.3633 12.9336 82.8516 12.5234C83.3398 12.1133 83.584 11.5143 83.584 10.7266C83.584 9.97786 83.3496 9.38542 82.8809 8.94922C82.4121 8.51302 81.6862 8.29492 80.7031 8.29492H77.8809V13.1387ZM91.2793 16.8887L90.2539 15.6973L97.002 8.20703L97.041 8.1582L95.9766 8.02148V6.78125H100.537V8.02148L99.1992 8.26562L91.2793 16.8887ZM87.9004 21V19.7695L89.4922 19.4961V8.29492L87.9004 8.02148V6.78125H93.0078V8.02148L91.416 8.29492V19.4961L93.0078 19.7695V21H87.9004ZM96.2988 21V19.7695L97.4707 19.6328L97.4609 19.623L93.5254 14.1641L94.5996 12.6504L99.7363 19.5254L101.045 19.7695V21H96.2988ZM107.695 21.2051C106.829 21.2051 105.996 21.0781 105.195 20.8242C104.395 20.5703 103.63 20.1797 102.9 19.6523V16.6152H104.395L104.717 18.8516C105.14 19.112 105.599 19.3138 106.094 19.457C106.589 19.6003 107.122 19.6719 107.695 19.6719C108.346 19.6719 108.896 19.5742 109.346 19.3789C109.801 19.1771 110.15 18.9004 110.391 18.5488C110.632 18.1973 110.752 17.7871 110.752 17.3184C110.752 16.8822 110.648 16.498 110.439 16.166C110.231 15.834 109.886 15.5443 109.404 15.2969C108.929 15.043 108.278 14.8216 107.451 14.6328C106.475 14.4049 105.648 14.1022 104.971 13.7246C104.3 13.3405 103.789 12.8783 103.438 12.3379C103.092 11.791 102.92 11.166 102.92 10.4629C102.92 9.7207 103.115 9.05664 103.506 8.4707C103.903 7.88477 104.453 7.42253 105.156 7.08398C105.859 6.74544 106.68 6.57617 107.617 6.57617C108.613 6.57617 109.492 6.72917 110.254 7.03516C111.022 7.33464 111.654 7.69922 112.148 8.12891V10.9707H110.654L110.332 8.93945C110.039 8.70508 109.674 8.50977 109.238 8.35352C108.802 8.19727 108.262 8.11914 107.617 8.11914C107.07 8.11914 106.589 8.2168 106.172 8.41211C105.755 8.60091 105.43 8.86784 105.195 9.21289C104.961 9.55794 104.844 9.96484 104.844 10.4336C104.844 10.8438 104.948 11.2018 105.156 11.5078C105.371 11.8138 105.716 12.084 106.191 12.3184C106.673 12.5462 107.314 12.7611 108.115 12.9629C109.613 13.334 110.745 13.8841 111.514 14.6133C112.288 15.3359 112.676 16.2311 112.676 17.2988C112.676 18.0605 112.471 18.7376 112.061 19.3301C111.65 19.916 111.071 20.375 110.322 20.707C109.58 21.0391 108.704 21.2051 107.695 21.2051ZM114.346 21V19.7695L115.938 19.4961V8.29492L114.346 8.02148V6.78125H119.453V8.02148L117.861 8.29492V13.207H124.658V8.29492L123.066 8.02148V6.78125H124.658H126.582H128.174V8.02148L126.582 8.29492V19.4961L128.174 19.7695V21H123.066V19.7695L124.658 19.4961V14.7207H117.861V19.4961L119.453 19.7695V21H114.346ZM129.756 21V19.7695L131.348 19.4961V8.29492L129.756 8.02148V6.78125H134.863V8.02148L133.271 8.29492V19.4961L134.863 19.7695V21H129.756ZM136.455 21V19.7695L138.047 19.4961V8.29492L136.455 8.02148V6.79102H142.793C143.828 6.79102 144.701 6.94727 145.41 7.25977C146.126 7.56576 146.67 8.01172 147.041 8.59766C147.412 9.18359 147.598 9.89974 147.598 10.7461C147.598 11.5794 147.415 12.2793 147.051 12.8457C146.693 13.4121 146.182 13.8418 145.518 14.1348C144.854 14.4212 144.066 14.5742 143.154 14.5938L139.971 14.6523V19.4961L141.562 19.7695V21H136.455ZM145.84 21L142.676 13.9004L144.6 13.8809L147.227 19.5645L148.213 19.7402V21H145.84ZM139.971 13.1387H142.598C143.672 13.1387 144.453 12.9336 144.941 12.5234C145.43 12.1133 145.674 11.5143 145.674 10.7266C145.674 9.97786 145.439 9.38542 144.971 8.94922C144.502 8.51302 143.776 8.29492 142.793 8.29492H139.971V13.1387ZM149.99 21V19.7695L151.582 19.4961V8.29492L149.99 8.02148V6.78125H160.518V10.1992H158.975L158.76 8.26562H153.506V12.8945H158.75V14.4082H153.506V19.5547H159.072L159.287 17.5918H160.82V21H149.99ZM167.725 21V19.7695L169.316 19.4961V8.29492L167.725 8.02148V6.78125H172.832V8.02148L171.24 8.29492V19.4961L172.832 19.7695V21H167.725ZM174.443 21V19.7695L176.035 19.4961V8.29492L174.443 8.02148V6.78125H176.035H177.979L184.951 17.8652L185.01 17.8457V8.29492L183.262 8.02148V6.78125H186.777H188.369V8.02148L186.777 8.29492V21H185.02L177.861 9.85742L177.803 9.87695V19.4961L179.551 19.7695V21H174.443ZM189.99 21V19.7695L191.582 19.4961V8.29492L189.99 8.02148V6.78125H191.582H193.525L200.498 17.8652L200.557 17.8457V8.29492L198.809 8.02148V6.78125H202.324H203.916V8.02148L202.324 8.29492V21H200.566L193.408 9.85742L193.35 9.87695V19.4961L195.098 19.7695V21H189.99Z" fill="black"/>
<path d="M0.791016 47V45.7695L2.38281 45.4961V34.2949L0.791016 34.0215V32.7812H2.38281H6.92383C8.4082 32.7812 9.56706 33.1035 10.4004 33.748C11.2402 34.3861 11.6602 35.3464 11.6602 36.6289C11.6602 37.2604 11.4583 37.8268 11.0547 38.3281C10.6576 38.8229 10.1302 39.1908 9.47266 39.4316C10.0456 39.5488 10.5371 39.7799 10.9473 40.125C11.3574 40.4635 11.6732 40.8802 11.8945 41.375C12.1224 41.8633 12.2363 42.4004 12.2363 42.9863C12.2363 44.2884 11.8132 45.2845 10.9668 45.9746C10.1204 46.6582 8.97461 47 7.5293 47H0.791016ZM4.30664 45.4961H7.5293C8.4082 45.4961 9.08854 45.2812 9.57031 44.8516C10.0586 44.4154 10.3027 43.8001 10.3027 43.0059C10.3027 42.446 10.2116 41.9674 10.0293 41.5703C9.85352 41.1732 9.58008 40.8672 9.20898 40.6523C8.8444 40.4375 8.38216 40.3301 7.82227 40.3301H4.30664V45.4961ZM4.30664 38.8262H7.42188C8.11198 38.8262 8.66862 38.6276 9.0918 38.2305C9.52148 37.8268 9.73633 37.2799 9.73633 36.5898C9.73633 35.8216 9.49544 35.2487 9.01367 34.8711C8.5319 34.487 7.83529 34.2949 6.92383 34.2949H4.30664V38.8262ZM18.2617 47.2051C17.3242 47.2051 16.5072 47.0358 15.8105 46.6973C15.1204 46.3522 14.5833 45.877 14.1992 45.2715C13.8216 44.666 13.6328 43.9661 13.6328 43.1719C13.6328 42.3906 13.8542 41.707 14.2969 41.1211C14.7396 40.5352 15.4004 39.946 16.2793 39.3535C16.2988 39.3405 16.3151 39.3307 16.3281 39.3242C16.3477 39.3112 16.3639 39.3014 16.377 39.2949C15.8691 38.6504 15.4915 38.0775 15.2441 37.5762C14.9967 37.0684 14.873 36.5475 14.873 36.0137C14.873 35.278 15.0163 34.6562 15.3027 34.1484C15.5892 33.6341 15.9993 33.2435 16.5332 32.9766C17.0671 32.7096 17.7051 32.5762 18.4473 32.5762C19.1374 32.5762 19.7428 32.7129 20.2637 32.9863C20.7845 33.2598 21.1914 33.6243 21.4844 34.0801C21.7773 34.5358 21.9238 35.0436 21.9238 35.6035C21.9238 36.2415 21.7513 36.7949 21.4062 37.2637C21.0677 37.7259 20.5632 38.2012 19.8926 38.6895L18.8281 39.4707L22.1484 43.4648C22.4154 43.0417 22.6237 42.5729 22.7734 42.0586C22.9232 41.5443 22.998 41.0007 22.998 40.4277H24.7168C24.7168 41.2806 24.5898 42.0716 24.3359 42.8008C24.082 43.5299 23.7142 44.1842 23.2324 44.7637L25.0391 46.9512L25.0195 47H22.7832L21.9531 46.0039C21.4323 46.3945 20.8561 46.694 20.2246 46.9023C19.5931 47.1042 18.9388 47.2051 18.2617 47.2051ZM18.2617 45.7012C18.7305 45.7012 19.1927 45.623 19.6484 45.4668C20.1042 45.304 20.5339 45.0729 20.9375 44.7734L17.4121 40.5254L17.0215 40.8086C16.429 41.2513 16.0352 41.6745 15.8398 42.0781C15.651 42.4818 15.5566 42.8464 15.5566 43.1719C15.5566 43.9076 15.7878 44.513 16.25 44.9883C16.7122 45.4635 17.3828 45.7012 18.2617 45.7012ZM17.8516 38.2988L19.1992 37.3711C19.5703 37.1237 19.821 36.8568 19.9512 36.5703C20.0879 36.2773 20.1562 35.9551 20.1562 35.6035C20.1562 35.2064 19.9967 34.8548 19.6777 34.5488C19.3652 34.2428 18.9551 34.0898 18.4473 34.0898C17.9199 34.0898 17.513 34.2754 17.2266 34.6465C16.9401 35.0111 16.7969 35.4603 16.7969 35.9941C16.7969 36.3392 16.8848 36.7005 17.0605 37.0781C17.2363 37.4492 17.5 37.8561 17.8516 38.2988ZM26.2988 47V45.7695L27.8906 45.4961V34.2949L26.2988 34.0215V32.7812H27.8906H32.4316C33.916 32.7812 35.0749 33.1035 35.9082 33.748C36.748 34.3861 37.168 35.3464 37.168 36.6289C37.168 37.2604 36.9661 37.8268 36.5625 38.3281C36.1654 38.8229 35.638 39.1908 34.9805 39.4316C35.5534 39.5488 36.0449 39.7799 36.4551 40.125C36.8652 40.4635 37.181 40.8802 37.4023 41.375C37.6302 41.8633 37.7441 42.4004 37.7441 42.9863C37.7441 44.2884 37.321 45.2845 36.4746 45.9746C35.6283 46.6582 34.4824 47 33.0371 47H26.2988ZM29.8145 45.4961H33.0371C33.916 45.4961 34.5964 45.2812 35.0781 44.8516C35.5664 44.4154 35.8105 43.8001 35.8105 43.0059C35.8105 42.446 35.7194 41.9674 35.5371 41.5703C35.3613 41.1732 35.0879 40.8672 34.7168 40.6523C34.3522 40.4375 33.89 40.3301 33.3301 40.3301H29.8145V45.4961ZM29.8145 38.8262H32.9297C33.6198 38.8262 34.1764 38.6276 34.5996 38.2305C35.0293 37.8268 35.2441 37.2799 35.2441 36.5898C35.2441 35.8216 35.0033 35.2487 34.5215 34.8711C34.0397 34.487 33.3431 34.2949 32.4316 34.2949H29.8145V38.8262Z" fill="black"/>
<path d="M47.5537 45V44.1387L48.668 43.9473V36.1064L47.5537 35.915V35.0469H54.9229V37.4395H53.8428L53.6924 36.0859H50.0146V39.3262H53.6855V40.3857H50.0146V43.9883H53.9111L54.0615 42.6143H55.1348V45H47.5537ZM59.4277 45.1436C58.931 45.1436 58.4661 45.0934 58.0332 44.9932C57.6003 44.8929 57.14 44.738 56.6523 44.5283L56.6387 42.7715H57.6572L57.9102 43.8311C58.1654 43.9359 58.4115 44.0133 58.6484 44.0635C58.89 44.109 59.1497 44.1318 59.4277 44.1318C59.9746 44.1318 60.3665 44.027 60.6035 43.8174C60.8405 43.6077 60.959 43.348 60.959 43.0381C60.959 42.7464 60.8382 42.5003 60.5967 42.2998C60.3597 42.0947 59.9268 41.9215 59.2979 41.7803C58.4046 41.5752 57.7461 41.3018 57.3223 40.96C56.903 40.6136 56.6934 40.1533 56.6934 39.5791C56.6934 39.1781 56.8096 38.8203 57.042 38.5059C57.2744 38.1868 57.598 37.9339 58.0127 37.7471C58.4274 37.5602 58.9105 37.4668 59.4619 37.4668C60.0225 37.4668 60.501 37.5306 60.8975 37.6582C61.2985 37.7858 61.6471 37.9567 61.9434 38.1709L62.0117 39.8594H61L60.7812 38.875C60.6217 38.7565 60.4326 38.6654 60.2139 38.6016C59.9951 38.5378 59.7445 38.5059 59.4619 38.5059C59.0426 38.5059 58.7008 38.6038 58.4365 38.7998C58.1768 38.9958 58.0469 39.2419 58.0469 39.5381C58.0469 39.7113 58.0833 39.8617 58.1562 39.9893C58.2337 40.1169 58.3796 40.2331 58.5938 40.3379C58.8079 40.4382 59.1224 40.5384 59.5371 40.6387C60.5671 40.8802 61.2848 41.1878 61.6904 41.5615C62.1006 41.9352 62.3057 42.3955 62.3057 42.9424C62.3057 43.5667 62.0732 44.0908 61.6084 44.5146C61.1481 44.9339 60.4212 45.1436 59.4277 45.1436ZM66.0312 45.1162C65.4844 45.1162 65.0492 44.9567 64.7256 44.6377C64.4066 44.3141 64.2471 43.7992 64.2471 43.0928V38.6016H63.0781V37.6035H64.2471V35.8193H65.5938V37.6035H67.2002V38.6016H65.5938V43.0928C65.5938 43.4482 65.6644 43.7103 65.8057 43.8789C65.9469 44.0475 66.1361 44.1318 66.373 44.1318C66.5326 44.1318 66.7103 44.1182 66.9062 44.0908C67.1022 44.0589 67.2549 44.0316 67.3643 44.0088L67.5488 44.8906C67.3529 44.9499 67.1113 45.0023 66.8242 45.0479C66.5417 45.0934 66.2773 45.1162 66.0312 45.1162ZM70.8027 45.1436C70.0326 45.1436 69.4469 44.9567 69.0459 44.583C68.6449 44.2048 68.4443 43.6738 68.4443 42.9902C68.4443 42.5208 68.5719 42.113 68.8271 41.7666C69.0869 41.4157 69.4606 41.1445 69.9482 40.9531C70.4359 40.7572 71.0192 40.6592 71.6982 40.6592H73.0176V39.9346C73.0176 39.488 72.8809 39.1416 72.6074 38.8955C72.3385 38.6494 71.958 38.5264 71.4658 38.5264C71.1559 38.5264 70.887 38.5651 70.6592 38.6426C70.4313 38.7155 70.224 38.818 70.0371 38.9502L69.8936 39.9824H68.8545V38.2871C69.1872 38.0182 69.5745 37.8154 70.0166 37.6787C70.4587 37.5374 70.9486 37.4668 71.4863 37.4668C72.3841 37.4668 73.0882 37.681 73.5986 38.1094C74.109 38.5378 74.3643 39.1507 74.3643 39.9482V43.5098C74.3643 43.6055 74.3643 43.6989 74.3643 43.79C74.3688 43.8812 74.3757 43.9723 74.3848 44.0635L75.1025 44.1387V45H73.168C73.127 44.7995 73.0951 44.6195 73.0723 44.46C73.0495 44.3005 73.0335 44.141 73.0244 43.9814C72.7646 44.3141 72.4388 44.5921 72.0469 44.8154C71.6595 45.0342 71.2448 45.1436 70.8027 45.1436ZM71.001 44.0156C71.4476 44.0156 71.8555 43.9085 72.2246 43.6943C72.5938 43.4801 72.8581 43.2227 73.0176 42.9219V41.582H71.6504C71.0306 41.582 70.5658 41.7301 70.2559 42.0264C69.946 42.3226 69.791 42.653 69.791 43.0176C69.791 43.3411 69.8913 43.5895 70.0918 43.7627C70.2923 43.9313 70.5954 44.0156 71.001 44.0156ZM80.0791 45.1436C79.596 45.1436 79.1768 45.0524 78.8213 44.8701C78.4658 44.6833 78.1696 44.4098 77.9326 44.0498L77.8096 45H76.6475V35.3955L75.5332 35.2041V34.3359H77.9941V38.4785C78.2266 38.1504 78.5137 37.8997 78.8555 37.7266C79.2018 37.5534 79.6051 37.4668 80.0654 37.4668C80.6761 37.4668 81.1956 37.6331 81.624 37.9658C82.057 38.2939 82.3874 38.7565 82.6152 39.3535C82.8477 39.9505 82.9639 40.6455 82.9639 41.4385V41.582C82.9639 42.293 82.8477 42.915 82.6152 43.4482C82.3874 43.9814 82.057 44.3984 81.624 44.6992C81.1956 44.9954 80.6807 45.1436 80.0791 45.1436ZM79.7373 44.0498C80.3708 44.0498 80.8402 43.8242 81.1455 43.373C81.4554 42.9219 81.6104 42.3249 81.6104 41.582V41.4385C81.6104 40.8688 81.542 40.3698 81.4053 39.9414C81.2686 39.5085 81.0612 39.1712 80.7832 38.9297C80.5052 38.6836 80.152 38.5605 79.7236 38.5605C79.3089 38.5605 78.958 38.6608 78.6709 38.8613C78.3883 39.0618 78.1628 39.3307 77.9941 39.668V42.9355C78.1628 43.2773 78.3906 43.5485 78.6777 43.749C78.9694 43.9495 79.3226 44.0498 79.7373 44.0498ZM83.8457 45V44.1387L84.96 43.9473V35.3955L83.8457 35.2041V34.3359H86.3066V43.9473L87.4209 44.1387V45H83.8457ZM88.3369 45V44.1387L89.4512 43.9473V38.6631L88.3369 38.4717V37.6035H90.7979V43.9473L91.9121 44.1387V45H88.3369ZM89.3828 35.7783V34.3359H90.7979V35.7783H89.3828ZM95.8359 45.1436C95.3392 45.1436 94.8743 45.0934 94.4414 44.9932C94.0085 44.8929 93.5482 44.738 93.0605 44.5283L93.0469 42.7715H94.0654L94.3184 43.8311C94.5736 43.9359 94.8197 44.0133 95.0566 44.0635C95.2982 44.109 95.5579 44.1318 95.8359 44.1318C96.3828 44.1318 96.7747 44.027 97.0117 43.8174C97.2487 43.6077 97.3672 43.348 97.3672 43.0381C97.3672 42.7464 97.2464 42.5003 97.0049 42.2998C96.7679 42.0947 96.335 41.9215 95.7061 41.7803C94.8128 41.5752 94.1543 41.3018 93.7305 40.96C93.3112 40.6136 93.1016 40.1533 93.1016 39.5791C93.1016 39.1781 93.2178 38.8203 93.4502 38.5059C93.6826 38.1868 94.0062 37.9339 94.4209 37.7471C94.8356 37.5602 95.3187 37.4668 95.8701 37.4668C96.4307 37.4668 96.9092 37.5306 97.3057 37.6582C97.7067 37.7858 98.0553 37.9567 98.3516 38.1709L98.4199 39.8594H97.4082L97.1895 38.875C97.0299 38.7565 96.8408 38.6654 96.6221 38.6016C96.4033 38.5378 96.1527 38.5059 95.8701 38.5059C95.4508 38.5059 95.109 38.6038 94.8447 38.7998C94.585 38.9958 94.4551 39.2419 94.4551 39.5381C94.4551 39.7113 94.4915 39.8617 94.5645 39.9893C94.6419 40.1169 94.7878 40.2331 95.002 40.3379C95.2161 40.4382 95.5306 40.5384 95.9453 40.6387C96.9753 40.8802 97.693 41.1878 98.0986 41.5615C98.5088 41.9352 98.7139 42.3955 98.7139 42.9424C98.7139 43.5667 98.4814 44.0908 98.0166 44.5146C97.5563 44.9339 96.8294 45.1436 95.8359 45.1436ZM99.6572 45V44.1387L100.771 43.9473V35.3955L99.6572 35.2041V34.3359H102.118V38.5879C102.373 38.2324 102.686 37.9567 103.055 37.7607C103.424 37.5648 103.834 37.4668 104.285 37.4668C105.078 37.4668 105.693 37.7038 106.131 38.1777C106.568 38.6517 106.787 39.3809 106.787 40.3652V43.9473L107.901 44.1387V45H104.326V44.1387L105.44 43.9473V40.3516C105.44 39.7409 105.308 39.2897 105.044 38.998C104.784 38.7064 104.395 38.5605 103.875 38.5605C103.506 38.5605 103.169 38.6494 102.863 38.8271C102.562 39.0003 102.314 39.2373 102.118 39.5381V43.9473L103.232 44.1387V45H99.6572ZM112.085 45.1436C111.401 45.1436 110.807 44.9886 110.301 44.6787C109.795 44.3643 109.403 43.929 109.125 43.373C108.852 42.8171 108.715 42.1745 108.715 41.4453V41.1445C108.715 40.4427 108.858 39.8161 109.146 39.2646C109.437 38.7087 109.822 38.2712 110.301 37.9521C110.784 37.6286 111.31 37.4668 111.88 37.4668C112.545 37.4668 113.101 37.6035 113.548 37.877C113.999 38.1504 114.339 38.5355 114.566 39.0322C114.794 39.5244 114.908 40.1055 114.908 40.7754V41.6162H110.109L110.089 41.6504C110.098 42.1243 110.18 42.5459 110.335 42.915C110.494 43.2796 110.722 43.5667 111.019 43.7764C111.315 43.986 111.67 44.0908 112.085 44.0908C112.541 44.0908 112.939 44.027 113.281 43.8994C113.628 43.7673 113.926 43.5872 114.177 43.3594L114.703 44.2344C114.439 44.4896 114.088 44.7061 113.65 44.8838C113.217 45.057 112.696 45.1436 112.085 45.1436ZM110.15 40.5635H113.562V40.3857C113.562 40.0303 113.498 39.7135 113.37 39.4355C113.247 39.153 113.06 38.932 112.81 38.7725C112.563 38.6084 112.254 38.5264 111.88 38.5264C111.579 38.5264 111.306 38.6152 111.06 38.793C110.813 38.9661 110.611 39.2031 110.451 39.5039C110.292 39.8047 110.187 40.1465 110.137 40.5293L110.15 40.5635ZM119.14 45.1436C118.538 45.1436 118.021 44.9954 117.588 44.6992C117.16 44.3984 116.831 43.9814 116.604 43.4482C116.376 42.915 116.262 42.293 116.262 41.582V41.4385C116.262 40.6455 116.376 39.9505 116.604 39.3535C116.831 38.7565 117.162 38.2939 117.595 37.9658C118.028 37.6331 118.547 37.4668 119.153 37.4668C119.591 37.4668 119.976 37.5488 120.309 37.7129C120.646 37.8724 120.933 38.1048 121.17 38.4102V35.3955L120.056 35.2041V34.3359H121.17H122.517V43.9473L123.631 44.1387V45H121.348L121.238 44.1182C120.997 44.4554 120.701 44.7106 120.35 44.8838C120.003 45.057 119.6 45.1436 119.14 45.1436ZM119.481 44.0498C119.882 44.0498 120.22 43.9587 120.493 43.7764C120.767 43.5941 120.992 43.3366 121.17 43.0039V39.5723C120.997 39.2624 120.771 39.0163 120.493 38.834C120.215 38.6517 119.882 38.5605 119.495 38.5605C119.067 38.5605 118.714 38.6836 118.436 38.9297C118.158 39.1712 117.95 39.5085 117.813 39.9414C117.677 40.3698 117.608 40.8688 117.608 41.4385V41.582C117.608 42.3249 117.761 42.9219 118.066 43.373C118.372 43.8242 118.843 44.0498 119.481 44.0498ZM128.368 45V44.1387L129.906 43.9473V36.4893L128.341 36.5166V35.6758L131.253 35.0469V43.9473L132.784 44.1387V45H128.368ZM137.18 45.1436C136.528 45.1436 135.958 45.0365 135.471 44.8223C134.988 44.6035 134.612 44.2845 134.343 43.8652C134.074 43.4414 133.939 42.9219 133.939 42.3066C133.939 41.7461 134.108 41.2516 134.445 40.8232C134.783 40.3949 135.238 40.0804 135.812 39.8799C135.316 39.6885 134.926 39.3991 134.644 39.0117C134.361 38.6198 134.22 38.1641 134.22 37.6445C134.22 37.0612 134.343 36.5667 134.589 36.1611C134.835 35.751 135.179 35.4388 135.621 35.2246C136.063 35.0104 136.578 34.9033 137.166 34.9033C137.749 34.9033 138.264 35.0104 138.711 35.2246C139.158 35.4388 139.506 35.751 139.757 36.1611C140.012 36.5667 140.14 37.0612 140.14 37.6445C140.14 38.1641 139.994 38.6198 139.702 39.0117C139.41 39.3991 139.016 39.6885 138.52 39.8799C139.094 40.0804 139.552 40.3949 139.894 40.8232C140.24 41.2516 140.413 41.7461 140.413 42.3066C140.413 42.9219 140.276 43.4414 140.003 43.8652C139.729 44.2845 139.349 44.6035 138.861 44.8223C138.378 45.0365 137.818 45.1436 137.18 45.1436ZM137.18 44.0908C137.553 44.0908 137.882 44.0179 138.164 43.8721C138.451 43.7262 138.674 43.5189 138.834 43.25C138.993 42.9766 139.073 42.653 139.073 42.2793C139.073 41.9147 138.991 41.5911 138.827 41.3086C138.663 41.026 138.438 40.805 138.15 40.6455C137.863 40.486 137.535 40.4062 137.166 40.4062C136.797 40.4062 136.471 40.486 136.188 40.6455C135.906 40.805 135.685 41.026 135.525 41.3086C135.366 41.5866 135.286 41.9102 135.286 42.2793C135.286 42.8444 135.457 43.2887 135.799 43.6123C136.145 43.9313 136.605 44.0908 137.18 44.0908ZM137.18 39.3467C137.494 39.3467 137.772 39.2783 138.014 39.1416C138.26 39.0003 138.451 38.8044 138.588 38.5537C138.725 38.3031 138.793 38.0091 138.793 37.6719C138.793 37.3438 138.722 37.0521 138.581 36.7969C138.44 36.5371 138.246 36.3343 138 36.1885C137.758 36.0381 137.48 35.9629 137.166 35.9629C136.688 35.9629 136.3 36.1201 136.004 36.4346C135.712 36.7445 135.566 37.1569 135.566 37.6719C135.566 38.1777 135.715 38.5833 136.011 38.8887C136.307 39.194 136.697 39.3467 137.18 39.3467ZM141.876 45V44.1387L143.414 43.9473V36.4893L141.849 36.5166V35.6758L144.761 35.0469V43.9473L146.292 44.1387V45H141.876ZM150.312 45.1436C149.965 45.1436 149.61 45.1094 149.245 45.041C148.885 44.9772 148.562 44.877 148.274 44.7402L148.479 43.7217C148.757 43.8538 149.04 43.9495 149.327 44.0088C149.619 44.0635 149.947 44.0908 150.312 44.0908C150.959 44.0908 151.469 43.8447 151.843 43.3525C152.221 42.8558 152.417 42.0583 152.431 40.96L152.403 40.9258C152.221 41.2311 151.966 41.4658 151.638 41.6299C151.31 41.7939 150.94 41.876 150.53 41.876C149.883 41.876 149.325 41.7415 148.855 41.4727C148.386 41.2038 148.024 40.8141 147.769 40.3037C147.518 39.7933 147.393 39.1758 147.393 38.4512C147.393 37.7585 147.529 37.1455 147.803 36.6123C148.081 36.0791 148.452 35.6621 148.917 35.3613C149.386 35.056 149.906 34.9033 150.476 34.9033C151.168 34.9033 151.765 35.0492 152.267 35.3408C152.768 35.6279 153.153 36.0586 153.422 36.6328C153.695 37.2025 153.832 37.9111 153.832 38.7588V40.5566C153.832 41.5911 153.686 42.4479 153.395 43.127C153.103 43.806 152.693 44.3118 152.164 44.6445C151.64 44.9772 151.022 45.1436 150.312 45.1436ZM150.53 40.8164C151.027 40.8164 151.439 40.7093 151.768 40.4951C152.1 40.2809 152.34 40.0075 152.485 39.6748V38.6221C152.485 37.7425 152.317 37.0794 151.979 36.6328C151.647 36.1862 151.159 35.9629 150.517 35.9629C150.184 35.9629 149.883 36.07 149.614 36.2842C149.345 36.4938 149.131 36.7855 148.972 37.1592C148.817 37.5329 148.739 37.9635 148.739 38.4512C148.739 38.9297 148.81 39.3467 148.951 39.7021C149.097 40.0531 149.304 40.3265 149.573 40.5225C149.842 40.7184 150.161 40.8164 150.53 40.8164Z" fill="black"/>
</svg>
