<svg width="12" height="12" viewBox="0 0 12 12" fill="none" xmlns="http://www.w3.org/2000/svg">
<g clip-path="url(#clip0_1_163)">
<path d="M3.86484 0.576359C3.68438 0.140421 3.20859 -0.0916102 2.75391 0.0326085L0.691406 0.595109C0.283594 0.707609 0 1.07792 0 1.4998C0 7.29823 4.70156 11.9998 10.5 11.9998C10.9219 11.9998 11.2922 11.7162 11.4047 11.3084L11.9672 9.24589C12.0914 8.7912 11.8594 8.31542 11.4234 8.13495L9.17344 7.19745C8.79141 7.03808 8.34844 7.14823 8.08828 7.46933L7.14141 8.6248C5.49141 7.84433 4.15547 6.50839 3.375 4.85839L4.53047 3.91386C4.85156 3.65136 4.96172 3.21073 4.80234 2.8287L3.86484 0.578702V0.576359Z" fill="black"/>
</g>
<defs>
<clipPath id="clip0_1_163">
<rect width="12" height="12" fill="white"/>
</clipPath>
</defs>
</svg>
