<svg width="44" height="44" viewBox="0 0 44 44" fill="none" xmlns="http://www.w3.org/2000/svg">
<path d="M12.4 14.4V25.2H31.6V14.4H12.4ZM10 14.4C10 13.0763 11.0763 12 12.4 12H31.6C32.9238 12 34 13.0763 34 14.4V25.2C34 26.5238 32.9238 27.6 31.6 27.6H12.4C11.0763 27.6 10 26.5238 10 25.2V14.4ZM14.8 28.8H29.2C29.8638 28.8 30.4 29.3363 30.4 30C30.4 30.6638 29.8638 31.2 29.2 31.2H14.8C14.1363 31.2 13.6 30.6638 13.6 30C13.6 29.3363 14.1363 28.8 14.8 28.8Z" fill="black" fill-opacity="0.2"/>
<rect x="1" y="1" width="42" height="42" rx="21" stroke="black" stroke-opacity="0.2" stroke-width="2"/>
</svg>
