<svg width="88" height="88" viewBox="0 0 88 88" fill="none" xmlns="http://www.w3.org/2000/svg">
<g clip-path="url(#clip0_1_116)">
<path d="M65.4177 44.4071L64.0356 61.2607C63.682 65.6214 57.1891 65.0214 57.5427 60.7357L58.6141 47.6107L54.2106 47.8571C55.2927 50.075 55.9034 52.5607 55.9034 55.1964C55.9034 59.6107 54.1784 63.6286 51.3713 66.6071L47.1606 62.3964C53.3641 55.5714 48.5641 44.4821 39.232 44.4821C36.457 44.4821 33.9284 45.5429 32.032 47.2679L27.8213 43.0571C30.1784 40.8393 33.1891 39.2964 36.5427 38.75L44.6106 29.5679L40.0463 26.9107L34.5177 31.8393C31.3034 34.7107 26.9534 29.8571 30.1784 26.975L37.4641 20.4714C38.5141 19.5286 40.0463 19.3786 41.2677 20.0857C41.2677 20.0857 56.1927 28.7536 56.2141 28.775C57.9499 29.8571 58.432 32.6321 56.8677 34.4107L50.6106 41.5357L61.9784 40.9036C63.9606 40.7857 65.5784 42.4464 65.4177 44.4071ZM58.4641 27.9071C61.4749 27.9071 63.9177 25.4643 63.9177 22.4536C63.9177 19.4429 61.4749 17 58.4641 17C55.4534 17 53.0106 19.4429 53.0106 22.4536C53.0106 25.4643 55.4534 27.9071 58.4641 27.9071ZM39.2427 65.9107C30.607 65.9107 25.5927 56.2036 30.382 49.1857L26.1284 44.9321C23.8999 47.75 22.5713 51.3179 22.5713 55.1857C22.5713 69.1893 38.7177 76.7643 49.507 68.3107L45.2534 64.0571C43.5391 65.225 41.4713 65.9107 39.2427 65.9107Z" fill="black"/>
</g>
<rect x="2" y="2" width="84" height="84" rx="42" stroke="black" stroke-width="4"/>
<defs>
<clipPath id="clip0_1_116">
<rect width="48" height="54.8571" fill="white" transform="translate(20 17)"/>
</clipPath>
</defs>
</svg>
