<svg width="44" height="44" viewBox="0 0 44 44" fill="none" xmlns="http://www.w3.org/2000/svg">
<path d="M33.5651 22.3479L32.7911 31.7858C32.5931 34.2278 28.9571 33.8918 29.1551 31.4918L29.7551 24.1419L27.2892 24.2799C27.8952 25.5219 28.2372 26.9139 28.2372 28.3898C28.2372 30.8618 27.2712 33.1118 25.6992 34.7798L23.3412 32.4218C26.8152 28.5998 24.1272 22.3899 18.9012 22.3899C17.3472 22.3899 15.9312 22.9839 14.8693 23.9499L12.5113 21.5919C13.8313 20.3499 15.5172 19.4859 17.3952 19.1799L21.9132 14.0379L19.3572 12.55L16.2612 15.3099C14.4613 16.9179 12.0253 14.1999 13.8313 12.586L17.9112 8.94399C18.4992 8.41599 19.3572 8.33199 20.0412 8.72799C20.0412 8.72799 28.3992 13.582 28.4112 13.594C29.3831 14.1999 29.6531 15.7539 28.7772 16.7499L25.2732 20.7399L31.6391 20.3859C32.7491 20.3199 33.6551 21.2499 33.5651 22.3479ZM29.6711 13.108C31.3571 13.108 32.7251 11.74 32.7251 10.054C32.7251 8.36799 31.3571 7 29.6711 7C27.9852 7 26.6172 8.36799 26.6172 10.054C26.6172 11.74 27.9852 13.108 29.6711 13.108ZM18.9072 34.3898C14.0713 34.3898 11.2633 28.9538 13.9453 25.0239L11.5633 22.6419C10.3153 24.2199 9.57129 26.2179 9.57129 28.3838C9.57129 36.2258 18.6132 40.4678 24.6552 35.7338L22.2732 33.3518C21.3132 34.0058 20.1552 34.3898 18.9072 34.3898Z" fill="black" fill-opacity="0.2"/>
<rect x="1" y="1" width="42" height="42" rx="21" stroke="black" stroke-opacity="0.2" stroke-width="2"/>
</svg>
