<svg width="88" height="88" viewBox="0 0 88 88" fill="none" xmlns="http://www.w3.org/2000/svg">
<rect x="2" y="2" width="84" height="84" rx="42" stroke="black" stroke-width="4"/>
<path d="M24.065 40.2175C29.24 35.2525 36.26 32.2 44 32.2C51.74 32.2 58.76 35.2525 63.935 40.2175C64.895 41.1325 66.41 41.1025 67.325 40.15C68.24 39.1975 68.21 37.675 67.2575 36.76C61.2275 30.9625 53.03 27.4 44 27.4C34.97 27.4 26.7725 30.9625 20.735 36.7525C19.7825 37.675 19.7525 39.19 20.6675 40.15C21.5825 41.11 23.105 41.14 24.0575 40.2175H24.065ZM44 44.2C48.26 44.2 52.145 45.7825 55.115 48.4C56.1125 49.2775 57.6275 49.18 58.505 48.19C59.3825 47.2 59.285 45.6775 58.295 44.8C54.485 41.44 49.475 39.4 44 39.4C38.525 39.4 33.515 41.44 29.7125 44.8C28.715 45.6775 28.625 47.1925 29.5025 48.19C30.38 49.1875 31.895 49.2775 32.8925 48.4C35.855 45.7825 39.74 44.2 44.0075 44.2H44ZM48.8 56.2C48.8 54.927 48.2943 53.7061 47.3941 52.8059C46.494 51.9057 45.2731 51.4 44 51.4C42.727 51.4 41.5061 51.9057 40.6059 52.8059C39.7057 53.7061 39.2 54.927 39.2 56.2C39.2 57.4731 39.7057 58.694 40.6059 59.5941C41.5061 60.4943 42.727 61 44 61C45.2731 61 46.494 60.4943 47.3941 59.5941C48.2943 58.694 48.8 57.4731 48.8 56.2Z" fill="black"/>
</svg>
