<svg width="44" height="44" viewBox="0 0 44 44" fill="none" xmlns="http://www.w3.org/2000/svg">
<path d="M12.0326 20.4099C14.6206 17.9269 18.1312 16.4004 22.0019 16.4004C25.8726 16.4004 29.3832 17.9269 31.9711 20.4099C32.4512 20.8675 33.2088 20.8525 33.6664 20.3761C34.124 19.8998 34.109 19.1384 33.6327 18.6808C30.6171 15.7816 26.5177 14 22.0019 14C17.4861 14 13.3866 15.7816 10.3673 18.6771C9.891 19.1384 9.876 19.896 10.3336 20.3761C10.7912 20.8562 11.5525 20.8712 12.0289 20.4099H12.0326ZM22.0019 22.4015C24.1322 22.4015 26.0751 23.1929 27.5604 24.5018C28.0592 24.9407 28.8168 24.8919 29.2556 24.3968C29.6945 23.9017 29.6457 23.1404 29.1506 22.7015C27.2453 21.0212 24.7399 20.0011 22.0019 20.0011C19.2639 20.0011 16.7585 21.0212 14.8569 22.7015C14.358 23.1404 14.313 23.898 14.7519 24.3968C15.1907 24.8957 15.9483 24.9407 16.4472 24.5018C17.9287 23.1929 19.8715 22.4015 22.0056 22.4015H22.0019ZM24.4023 28.4025C24.4023 27.7659 24.1494 27.1553 23.6992 26.7052C23.2491 26.255 22.6385 26.0021 22.0019 26.0021C21.3652 26.0021 20.7547 26.255 20.3045 26.7052C19.8544 27.1553 19.6015 27.7659 19.6015 28.4025C19.6015 29.0392 19.8544 29.6497 20.3045 30.0999C20.7547 30.55 21.3652 30.8029 22.0019 30.8029C22.6385 30.8029 23.2491 30.55 23.6992 30.0999C24.1494 29.6497 24.4023 29.0392 24.4023 28.4025Z" fill="black" fill-opacity="0.2"/>
<rect x="1" y="1" width="42" height="42" rx="21" stroke="black" stroke-opacity="0.2" stroke-width="2"/>
</svg>
