<svg width="16" height="22" viewBox="0 0 16 22" fill="none" xmlns="http://www.w3.org/2000/svg">
<g clip-path="url(#clip0_1_161)">
<path d="M1.78762 10.0133L5.93845 12.0387C6.73845 12.4304 6.61345 13.6017 5.75095 13.8183L1.27095 14.9354C1.13944 14.9685 1.00237 14.973 0.868967 14.9487C0.735564 14.9243 0.60892 14.8717 0.497556 14.7943C0.386193 14.717 0.292693 14.6166 0.223347 14.5001C0.154002 14.3836 0.110419 14.2535 0.0955321 14.1187C-0.0419328 12.9206 0.0860979 11.7069 0.470532 10.5637C0.51366 10.4357 0.583597 10.3184 0.675678 10.2195C0.767759 10.1207 0.879865 10.0426 1.00451 9.99048C1.12916 9.93839 1.26349 9.91348 1.39853 9.91742C1.53357 9.92136 1.66621 9.95406 1.78762 10.0133ZM3.62095 19.9821C4.61408 20.6625 5.74318 21.119 6.93012 21.32C7.06369 21.3429 7.20062 21.337 7.3317 21.3026C7.46278 21.2681 7.58497 21.2061 7.69005 21.1205C7.79513 21.0349 7.88067 20.9278 7.94091 20.8064C8.00115 20.685 8.03469 20.5521 8.03928 20.4167L8.20178 15.7992C8.23095 14.9117 7.13928 14.4696 6.54303 15.1283L3.45095 18.5617C3.3604 18.6624 3.29243 18.7813 3.25158 18.9105C3.21072 19.0396 3.19794 19.176 3.21407 19.3105C3.23021 19.445 3.27489 19.5745 3.34514 19.6903C3.41538 19.8061 3.50956 19.9056 3.62137 19.9821H3.62095ZM9.67678 15.4021L12.1272 19.3187C12.1994 19.4337 12.2953 19.532 12.4085 19.607C12.5217 19.682 12.6496 19.7321 12.7837 19.7537C12.9178 19.7754 13.0549 19.7683 13.186 19.7328C13.3171 19.6973 13.4391 19.6343 13.5439 19.5479C14.4725 18.7802 15.2221 17.8187 15.7401 16.7308C15.7972 16.6083 15.8277 16.4752 15.8297 16.34C15.8317 16.2049 15.8051 16.0709 15.7516 15.9468C15.6981 15.8227 15.619 15.7113 15.5194 15.62C15.4199 15.5286 15.3021 15.4593 15.1739 15.4167L10.7814 13.9892C9.93511 13.7183 9.20595 14.6475 9.67678 15.4021ZM15.8572 9.8925C15.377 8.78768 14.6599 7.80182 13.7568 7.00458C13.6552 6.91552 13.5358 6.84911 13.4065 6.80976C13.2772 6.77041 13.1411 6.75903 13.0071 6.77637C12.873 6.79372 12.7443 6.83938 12.6293 6.91034C12.5143 6.9813 12.4157 7.07592 12.3401 7.18791L9.75678 11.0179C9.26095 11.7554 9.95261 12.71 10.8068 12.4642L15.2501 11.1929C15.3803 11.1546 15.5009 11.089 15.6039 11.0006C15.7069 10.9121 15.7899 10.8028 15.8475 10.6799C15.9051 10.5569 15.9358 10.4231 15.9378 10.2874C15.9397 10.1517 15.9128 10.0171 15.8589 9.8925H15.8572ZM2.58803 1.2575C2.47001 1.3143 2.36496 1.39484 2.27947 1.49408C2.19398 1.59331 2.12987 1.70912 2.09116 1.83425C2.05244 1.95939 2.03996 2.09116 2.05447 2.22134C2.06899 2.35151 2.1102 2.4773 2.17553 2.59083L6.51387 10.1092C7.00137 10.9508 8.28928 10.605 8.28928 9.63416V0.95333C8.29046 0.822145 8.2643 0.692153 8.21247 0.571636C8.16064 0.451119 8.08427 0.342721 7.98824 0.253347C7.8922 0.163974 7.7786 0.0955852 7.65467 0.0525394C7.53074 0.00949363 7.39921 -0.00726548 7.26845 0.00332994C5.64486 0.132352 4.05859 0.557409 2.58803 1.2575Z" fill="black"/>
</g>
<defs>
<clipPath id="clip0_1_161">
<rect width="16" height="21.3333" fill="white"/>
</clipPath>
</defs>
</svg>
