<svg width="20" height="27" viewBox="0 0 20 27" fill="none" xmlns="http://www.w3.org/2000/svg">
<path d="M2.23428 12.5166L7.42282 15.0484C8.42282 15.538 8.26657 17.002 7.18844 17.2729L1.58844 18.6692C1.42405 18.7105 1.25272 18.7162 1.08596 18.6858C0.919211 18.6554 0.760906 18.5896 0.621701 18.4929C0.482497 18.3961 0.365622 18.2707 0.27894 18.1251C0.192258 17.9794 0.13778 17.8169 0.119171 17.6484C-0.0526602 16.1507 0.107378 14.6335 0.587921 13.2046C0.64183 13.0446 0.729253 12.8979 0.844353 12.7743C0.959454 12.6508 1.09959 12.5532 1.2554 12.488C1.41121 12.4229 1.57912 12.3918 1.74792 12.3967C1.91672 12.4016 2.08252 12.4425 2.23428 12.5166ZM4.52594 24.9775C5.76735 25.828 7.17873 26.3987 8.6624 26.6499C8.82936 26.6786 9.00053 26.6712 9.16438 26.6281C9.32823 26.5851 9.48097 26.5075 9.61232 26.4005C9.74367 26.2936 9.85059 26.1597 9.92589 26.0079C10.0012 25.8562 10.0431 25.6901 10.0489 25.5208L10.252 19.7489C10.2884 18.6395 8.92386 18.0869 8.17855 18.9103L4.31344 23.202C4.20026 23.328 4.11529 23.4766 4.06423 23.638C4.01316 23.7995 3.99718 23.97 4.01735 24.1381C4.03752 24.3062 4.09337 24.4681 4.18118 24.6128C4.26898 24.7576 4.3867 24.882 4.52646 24.9775H4.52594ZM12.0957 19.2525L15.1588 24.1484C15.249 24.2921 15.3689 24.415 15.5104 24.5087C15.6519 24.6025 15.8118 24.665 15.9794 24.6921C16.147 24.7192 16.3184 24.7103 16.4822 24.6659C16.6461 24.6216 16.7986 24.5428 16.9296 24.4348C18.0904 23.4752 19.0274 22.2733 19.6749 20.9135C19.7463 20.7604 19.7844 20.5939 19.7869 20.425C19.7894 20.2561 19.7561 20.0886 19.6892 19.9335C19.6224 19.7783 19.5235 19.6391 19.399 19.5249C19.2746 19.4107 19.1274 19.3241 18.9671 19.2708L13.4765 17.4864C12.4187 17.1478 11.5072 18.3093 12.0957 19.2525ZM19.8213 12.3656C19.2209 10.9845 18.3247 9.75221 17.1957 8.75566C17.0687 8.64434 16.9194 8.56132 16.7579 8.51214C16.5963 8.46295 16.4261 8.44873 16.2586 8.47041C16.0911 8.49208 15.9301 8.54917 15.7864 8.63786C15.6426 8.72656 15.5194 8.84484 15.4249 8.98483L12.1957 13.7723C11.5759 14.6942 12.4405 15.8874 13.5082 15.5801L19.0624 13.9911C19.2252 13.9432 19.3759 13.8612 19.5047 13.7507C19.6334 13.6401 19.7372 13.5035 19.8091 13.3498C19.8811 13.1961 19.9195 13.0289 19.922 12.8592C19.9244 12.6895 19.8908 12.5213 19.8233 12.3656H19.8213ZM3.2348 1.57181C3.08726 1.64282 2.95596 1.74349 2.84909 1.86753C2.74223 1.99158 2.66209 2.13634 2.6137 2.29275C2.56531 2.44917 2.5497 2.61389 2.56785 2.77661C2.586 2.93933 2.63751 3.09656 2.71917 3.23848L8.14209 12.6364C8.75146 13.6885 10.3614 13.2562 10.3614 12.0426V1.1916C10.3628 1.02762 10.3301 0.86513 10.2653 0.714484C10.2006 0.563838 10.1051 0.42834 9.98505 0.316623C9.86501 0.204906 9.723 0.11942 9.5681 0.0656132C9.41319 0.011806 9.24877 -0.00914288 9.08532 0.00410139C7.05583 0.165379 5.073 0.6967 3.2348 1.57181Z" fill="white"/>
</svg>
